<?xml version="1.0" encoding="UTF-8" standalone="no"?>
<svg
   viewBox="0 0 33.000001 29"
   height="8.1844444mm"
   width="9.3133335mm">
  <g
     transform="translate(-492.07227,-683.57617)"
     id="layer1">
    <path
       id="path3347"
       d="m 512.51172,683.57617 c -8.11803,0 -12.33894,0.35361 -11.93945,1 0.35109,0.56807 5.34329,1 11.55859,1 l 10.94141,0 0,12.5 0,12.5 -10.94141,0 c -6.2153,0 -11.2075,0.43192 -11.55859,1 -0.39949,0.64639 3.82142,1 11.93945,1 l 12.56055,0 0,-14.5 0,-14.5 -12.56055,0 z m -7.91797,10.03711 c -0.37723,0.0556 -0.17957,0.68322 0.97852,1.96289 1.795,1.9835 1.74593,2 -5.84571,2 -4.43666,0 -7.65429,0.42042 -7.65429,1 0,0.57958 3.21763,1 7.65429,1 7.59164,0 7.64071,0.0165 5.84571,2 -2.64706,2.92497 -0.27119,2.4498 2.5,-0.5 l 2.34765,-2.5 -2.34765,-2.5 c -1.5588,-1.65926 -2.9935,-2.53432 -3.47852,-2.46289 z"
       style="fill:#000000" />
  </g>
</svg>
